<?xml version="1.0" encoding="UTF-8" standalone="no"?>
<svg
   width="550"
   height="550"
   version="1.1"
   id="svg130"
   sodipodi:docname="AegishjalmrRed.svg"
   viewBox="0 0 550 550"
   inkscape:version="1.2.1 (9c6d41e410, 2022-07-14)"
   xmlns:inkscape="http://www.inkscape.org/namespaces/inkscape"
   xmlns:sodipodi="http://sodipodi.sourceforge.net/DTD/sodipodi-0.dtd"
   xmlns:xlink="http://www.w3.org/1999/xlink"
   xmlns="http://www.w3.org/2000/svg"
   xmlns:svg="http://www.w3.org/2000/svg">
  <defs
     id="defs134">
    <linearGradient
       inkscape:collect="always"
       id="linearGradient1215">
      <stop
         style="stop-color:#ffc006;stop-opacity:1;"
         offset="0"
         id="stop1211" />
      <stop
         style="stop-color:#ff2a06;stop-opacity:1;"
         offset="1"
         id="stop1213" />
    </linearGradient>
    <linearGradient
       inkscape:collect="always"
       xlink:href="#linearGradient1215"
       id="linearGradient1217"
       x1="27.528861"
       y1="276.08156"
       x2="527.52886"
       y2="276.08156"
       gradientUnits="userSpaceOnUse" />
  </defs>
  <sodipodi:namedview
     id="namedview132"
     pagecolor="#ffffff"
     bordercolor="#666666"
     borderopacity="1.0"
     inkscape:showpageshadow="2"
     inkscape:pageopacity="0.0"
     inkscape:pagecheckerboard="0"
     inkscape:deskcolor="#d1d1d1"
     showgrid="false"
     inkscape:zoom="1.2105668"
     inkscape:cx="448.13719"
     inkscape:cy="296.96833"
     inkscape:window-width="1920"
     inkscape:window-height="1060"
     inkscape:window-x="0"
     inkscape:window-y="20"
     inkscape:window-maximized="1"
     inkscape:current-layer="svg130" />
  <g
     id="g306"
     style="stroke:none;fill:url(#linearGradient1217);stroke-opacity:1;paint-order:stroke fill markers;fill-opacity:1;stroke-width:6;stroke-dasharray:none">
    <path
       style="color:#000000;fill:url(#linearGradient1217);stroke:none;stroke-opacity:1;paint-order:stroke fill markers;fill-opacity:1;stroke-width:6;stroke-dasharray:none"
       d="m 277.5293,232.58203 c -23.98291,0 -43.5,19.51709 -43.5,43.5 0,23.98291 19.51709,43.5 43.5,43.5 23.9829,0 43.5,-19.51709 43.5,-43.5 0,-23.98291 -19.5171,-43.5 -43.5,-43.5 z m 0,7 c 20.19983,0 36.5,16.30017 36.5,36.5 0,20.19983 -16.30017,36.5 -36.5,36.5 -20.19983,0 -36.5,-16.30017 -36.5,-36.5 0,-20.19983 16.30017,-36.5 36.5,-36.5 z"
       id="circle107" />
    <g
       id="a"
       stroke="#000000"
       stroke-width="7"
       transform="translate(27.528861,26.081557)"
       style="stroke:none;stroke-opacity:1;paint-order:stroke fill markers;fill:url(#linearGradient1217);fill-opacity:1;stroke-width:6;stroke-dasharray:none">
      <path
         style="color:#000000;fill:url(#linearGradient1217);stroke:none;stroke-opacity:1;paint-order:stroke fill markers;fill-opacity:1;stroke-width:6;stroke-dasharray:none"
         d="m 0,246.5 v 7 h 250 v -7 z"
         id="path109" />
      <path
         style="color:#000000;fill:url(#linearGradient1217);stroke:none;stroke-opacity:1;paint-order:stroke fill markers;fill-opacity:1;stroke-width:6;stroke-dasharray:none"
         d="m 5,196.5 v 7 c 14.027764,0 24.110114,5.67622 31.017578,14.31055 C 42.925042,226.44488 46.5,238.20001 46.5,250 c 0,11.79999 -3.574958,23.55512 -10.482422,32.18945 C 29.110114,290.82378 19.027764,296.5 5,296.5 v 7 c 15.972206,0 28.389901,-6.8238 36.482422,-16.93945 C 49.574943,276.4449 53.5,263.19999 53.5,250 53.5,236.80001 49.574943,223.5551 41.482422,213.43945 33.389901,203.3238 20.972206,196.5 5,196.5 Z"
         id="path111" />
      <path
         style="color:#000000;fill:url(#linearGradient1217);stroke:none;stroke-opacity:1;paint-order:stroke fill markers;fill-opacity:1;stroke-width:6;stroke-dasharray:none"
         d="m 96.5,215 v 70 h 7 v -70 z m 25,0 v 70 h 7 v -70 z m 25,0 v 70 h 7 v -70 z"
         id="path113" />
    </g>
    <g
       id="use116"
       stroke="#000000"
       stroke-width="7"
       transform="rotate(45,232.28122,296.27106)"
       style="stroke:none;stroke-opacity:1;paint-order:stroke fill markers;fill:url(#linearGradient1217);fill-opacity:1;stroke-width:6;stroke-dasharray:none">
      <path
         style="color:#000000;fill:url(#linearGradient1217);stroke:none;stroke-opacity:1;paint-order:stroke fill markers;fill-opacity:1;stroke-width:6;stroke-dasharray:none"
         d="m 0,246.5 v 7 h 250 v -7 z"
         id="path985" />
      <path
         style="color:#000000;fill:url(#linearGradient1217);stroke:none;stroke-opacity:1;paint-order:stroke fill markers;fill-opacity:1;stroke-width:6;stroke-dasharray:none"
         d="m 5,196.5 v 7 c 14.027764,0 24.110114,5.67622 31.017578,14.31055 C 42.925042,226.44488 46.5,238.20001 46.5,250 c 0,11.79999 -3.574958,23.55512 -10.482422,32.18945 C 29.110114,290.82378 19.027764,296.5 5,296.5 v 7 c 15.972206,0 28.389901,-6.8238 36.482422,-16.93945 C 49.574943,276.4449 53.5,263.19999 53.5,250 53.5,236.80001 49.574943,223.5551 41.482422,213.43945 33.389901,203.3238 20.972206,196.5 5,196.5 Z"
         id="path987" />
      <path
         style="color:#000000;fill:url(#linearGradient1217);stroke:none;stroke-opacity:1;paint-order:stroke fill markers;fill-opacity:1;stroke-width:6;stroke-dasharray:none"
         d="m 96.5,215 v 70 h 7 v -70 z m 25,0 v 70 h 7 v -70 z m 25,0 v 70 h 7 v -70 z"
         id="path989" />
    </g>
    <g
       id="use118"
       stroke="#000000"
       stroke-width="7"
       transform="rotate(90,250.72365,276.80521)"
       style="stroke:none;stroke-opacity:1;paint-order:stroke fill markers;fill:url(#linearGradient1217);fill-opacity:1;stroke-width:6;stroke-dasharray:none">
      <path
         style="color:#000000;fill:url(#linearGradient1217);stroke:none;stroke-opacity:1;paint-order:stroke fill markers;fill-opacity:1;stroke-width:6;stroke-dasharray:none"
         d="m 0,246.5 v 7 h 250 v -7 z"
         id="path993" />
      <path
         style="color:#000000;fill:url(#linearGradient1217);stroke:none;stroke-opacity:1;paint-order:stroke fill markers;fill-opacity:1;stroke-width:6;stroke-dasharray:none"
         d="m 5,196.5 v 7 c 14.027764,0 24.110114,5.67622 31.017578,14.31055 C 42.925042,226.44488 46.5,238.20001 46.5,250 c 0,11.79999 -3.574958,23.55512 -10.482422,32.18945 C 29.110114,290.82378 19.027764,296.5 5,296.5 v 7 c 15.972206,0 28.389901,-6.8238 36.482422,-16.93945 C 49.574943,276.4449 53.5,263.19999 53.5,250 53.5,236.80001 49.574943,223.5551 41.482422,213.43945 33.389901,203.3238 20.972206,196.5 5,196.5 Z"
         id="path995" />
      <path
         style="color:#000000;fill:url(#linearGradient1217);stroke:none;stroke-opacity:1;paint-order:stroke fill markers;fill-opacity:1;stroke-width:6;stroke-dasharray:none"
         d="m 96.5,215 v 70 h 7 v -70 z m 25,0 v 70 h 7 v -70 z m 25,0 v 70 h 7 v -70 z"
         id="path997" />
    </g>
    <g
       id="use120"
       stroke="#000000"
       stroke-width="7"
       transform="rotate(135,258.36277,268.74219)"
       style="stroke:none;stroke-opacity:1;paint-order:stroke fill markers;fill:url(#linearGradient1217);fill-opacity:1;stroke-width:6;stroke-dasharray:none">
      <path
         style="color:#000000;fill:url(#linearGradient1217);stroke:none;stroke-opacity:1;paint-order:stroke fill markers;fill-opacity:1;stroke-width:6;stroke-dasharray:none"
         d="m 0,246.5 v 7 h 250 v -7 z"
         id="path1001" />
      <path
         style="color:#000000;fill:url(#linearGradient1217);stroke:none;stroke-opacity:1;paint-order:stroke fill markers;fill-opacity:1;stroke-width:6;stroke-dasharray:none"
         d="m 5,196.5 v 7 c 14.027764,0 24.110114,5.67622 31.017578,14.31055 C 42.925042,226.44488 46.5,238.20001 46.5,250 c 0,11.79999 -3.574958,23.55512 -10.482422,32.18945 C 29.110114,290.82378 19.027764,296.5 5,296.5 v 7 c 15.972206,0 28.389901,-6.8238 36.482422,-16.93945 C 49.574943,276.4449 53.5,263.19999 53.5,250 53.5,236.80001 49.574943,223.5551 41.482422,213.43945 33.389901,203.3238 20.972206,196.5 5,196.5 Z"
         id="path1003" />
      <path
         style="color:#000000;fill:url(#linearGradient1217);stroke:none;stroke-opacity:1;paint-order:stroke fill markers;fill-opacity:1;stroke-width:6;stroke-dasharray:none"
         d="m 96.5,215 v 70 h 7 v -70 z m 25,0 v 70 h 7 v -70 z m 25,0 v 70 h 7 v -70 z"
         id="path1005" />
    </g>
    <g
       id="use122"
       stroke="#000000"
       stroke-width="7"
       transform="rotate(180,263.76443,263.04078)"
       style="stroke:none;stroke-opacity:1;paint-order:stroke fill markers;fill:url(#linearGradient1217);fill-opacity:1;stroke-width:6;stroke-dasharray:none">
      <path
         style="color:#000000;fill:url(#linearGradient1217);stroke:none;stroke-opacity:1;paint-order:stroke fill markers;fill-opacity:1;stroke-width:6;stroke-dasharray:none"
         d="m 0,246.5 v 7 h 250 v -7 z"
         id="path1009" />
      <path
         style="color:#000000;fill:url(#linearGradient1217);stroke:none;stroke-opacity:1;paint-order:stroke fill markers;fill-opacity:1;stroke-width:6;stroke-dasharray:none"
         d="m 5,196.5 v 7 c 14.027764,0 24.110114,5.67622 31.017578,14.31055 C 42.925042,226.44488 46.5,238.20001 46.5,250 c 0,11.79999 -3.574958,23.55512 -10.482422,32.18945 C 29.110114,290.82378 19.027764,296.5 5,296.5 v 7 c 15.972206,0 28.389901,-6.8238 36.482422,-16.93945 C 49.574943,276.4449 53.5,263.19999 53.5,250 53.5,236.80001 49.574943,223.5551 41.482422,213.43945 33.389901,203.3238 20.972206,196.5 5,196.5 Z"
         id="path1011" />
      <path
         style="color:#000000;fill:url(#linearGradient1217);stroke:none;stroke-opacity:1;paint-order:stroke fill markers;fill-opacity:1;stroke-width:6;stroke-dasharray:none"
         d="m 96.5,215 v 70 h 7 v -70 z m 25,0 v 70 h 7 v -70 z m 25,0 v 70 h 7 v -70 z"
         id="path1013" />
    </g>
    <g
       id="use124"
       stroke="#000000"
       stroke-width="7"
       transform="rotate(-45,295.24766,229.81051)"
       style="stroke:none;stroke-opacity:1;paint-order:stroke fill markers;fill:url(#linearGradient1217);fill-opacity:1;stroke-width:6;stroke-dasharray:none">
      <path
         style="color:#000000;fill:url(#linearGradient1217);stroke:none;stroke-opacity:1;paint-order:stroke fill markers;fill-opacity:1;stroke-width:6;stroke-dasharray:none"
         d="m 0,246.5 v 7 h 250 v -7 z"
         id="path1017" />
      <path
         style="color:#000000;fill:url(#linearGradient1217);stroke:none;stroke-opacity:1;paint-order:stroke fill markers;fill-opacity:1;stroke-width:6;stroke-dasharray:none"
         d="m 5,196.5 v 7 c 14.027764,0 24.110114,5.67622 31.017578,14.31055 C 42.925042,226.44488 46.5,238.20001 46.5,250 c 0,11.79999 -3.574958,23.55512 -10.482422,32.18945 C 29.110114,290.82378 19.027764,296.5 5,296.5 v 7 c 15.972206,0 28.389901,-6.8238 36.482422,-16.93945 C 49.574943,276.4449 53.5,263.19999 53.5,250 53.5,236.80001 49.574943,223.5551 41.482422,213.43945 33.389901,203.3238 20.972206,196.5 5,196.5 Z"
         id="path1019" />
      <path
         style="color:#000000;fill:url(#linearGradient1217);stroke:none;stroke-opacity:1;paint-order:stroke fill markers;fill-opacity:1;stroke-width:6;stroke-dasharray:none"
         d="m 96.5,215 v 70 h 7 v -70 z m 25,0 v 70 h 7 v -70 z m 25,0 v 70 h 7 v -70 z"
         id="path1021" />
    </g>
    <g
       id="use126"
       stroke="#000000"
       stroke-width="7"
       transform="rotate(-90,276.80521,249.27635)"
       style="stroke:none;stroke-opacity:1;paint-order:stroke fill markers;fill:url(#linearGradient1217);fill-opacity:1;stroke-width:6;stroke-dasharray:none">
      <path
         style="color:#000000;fill:url(#linearGradient1217);stroke:none;stroke-opacity:1;paint-order:stroke fill markers;fill-opacity:1;stroke-width:6;stroke-dasharray:none"
         d="m 0,246.5 v 7 h 250 v -7 z"
         id="path1025" />
      <path
         style="color:#000000;fill:url(#linearGradient1217);stroke:none;stroke-opacity:1;paint-order:stroke fill markers;fill-opacity:1;stroke-width:6;stroke-dasharray:none"
         d="m 5,196.5 v 7 c 14.027764,0 24.110114,5.67622 31.017578,14.31055 C 42.925042,226.44488 46.5,238.20001 46.5,250 c 0,11.79999 -3.574958,23.55512 -10.482422,32.18945 C 29.110114,290.82378 19.027764,296.5 5,296.5 v 7 c 15.972206,0 28.389901,-6.8238 36.482422,-16.93945 C 49.574943,276.4449 53.5,263.19999 53.5,250 53.5,236.80001 49.574943,223.5551 41.482422,213.43945 33.389901,203.3238 20.972206,196.5 5,196.5 Z"
         id="path1027" />
      <path
         style="color:#000000;fill:url(#linearGradient1217);stroke:none;stroke-opacity:1;paint-order:stroke fill markers;fill-opacity:1;stroke-width:6;stroke-dasharray:none"
         d="m 96.5,215 v 70 h 7 v -70 z m 25,0 v 70 h 7 v -70 z m 25,0 v 70 h 7 v -70 z"
         id="path1029" />
    </g>
    <g
       id="use128"
       stroke="#000000"
       stroke-width="7"
       transform="rotate(-135,269.16611,257.33936)"
       style="stroke:none;stroke-opacity:1;paint-order:stroke fill markers;fill:url(#linearGradient1217);fill-opacity:1;stroke-width:6;stroke-dasharray:none">
      <path
         style="color:#000000;fill:url(#linearGradient1217);fill-opacity:1;stroke:none;stroke-width:6;stroke-dasharray:none;stroke-opacity:1;paint-order:stroke fill markers"
         d="m 0,246.5 2.8284271,7 250.0000029,0 v -7 z"
         id="path1033"
         sodipodi:nodetypes="ccccc" />
      <path
         style="color:#000000;fill:url(#linearGradient1217);stroke:none;stroke-opacity:1;paint-order:stroke fill markers;fill-opacity:1;stroke-width:6;stroke-dasharray:none"
         d="m 5,196.5 v 7 c 14.027764,0 24.110114,5.67622 31.017578,14.31055 C 42.925042,226.44488 46.5,238.20001 46.5,250 c 0,11.79999 -3.574958,23.55512 -10.482422,32.18945 C 29.110114,290.82378 19.027764,296.5 5,296.5 v 7 c 15.972206,0 28.389901,-6.8238 36.482422,-16.93945 C 49.574943,276.4449 53.5,263.19999 53.5,250 53.5,236.80001 49.574943,223.5551 41.482422,213.43945 33.389901,203.3238 20.972206,196.5 5,196.5 Z"
         id="path1035" />
      <path
         style="color:#000000;fill:url(#linearGradient1217);stroke:none;stroke-opacity:1;paint-order:stroke fill markers;fill-opacity:1;stroke-width:6;stroke-dasharray:none"
         d="m 96.5,215 v 70 h 7 v -70 z m 25,0 v 70 h 7 v -70 z m 25,0 v 70 h 7 v -70 z"
         id="path1037" />
    </g>
  </g>
</svg>
